<svg aria-hidden="true" style="position: absolute; width: 0; height: 0; overflow: hidden;" version="1.1" xmlns="http://www.w3.org/2000/svg" xmlns:xlink="http://www.w3.org/1999/xlink">
<defs>
<symbol id="icon-modal-close" viewBox="0 0 32 32">
<path fill="#e7e9fc" style="fill: var(--color1, #e7e9fc)" d="M28 12c0 6.627-5.373 12-12 12s-12-5.373-12-12c0-6.627 5.373-12 12-12s12 5.373 12 12z"></path>
<path fill="none" stroke="#000" style="stroke: var(--color2, #000)" stroke-linejoin="miter" stroke-linecap="butt" stroke-miterlimit="4" stroke-width="1" d="M27.5 12c0 6.351-5.149 11.5-11.5 11.5s-11.5-5.149-11.5-11.5c0-6.351 5.149-11.5 11.5-11.5s11.5 5.149 11.5 11.5z"></path>
<path fill="#000" style="fill: var(--color2, #000)" d="M20 8.806l-0.806-0.806-3.194 3.194-3.194-3.194-0.806 0.806 3.194 3.194-3.194 3.194 0.806 0.806 3.194-3.194 3.194 3.194 0.806-0.806-3.194-3.194 3.194-3.194z"></path>
</symbol>
</defs>
</svg>
